# xmcd
#
# Track frame offsets:
#	150
#	14853
#	33205
#	49483
#	66368
#	81873
#	97106
#	113733
#	130880
#	144982
#
# Disc length: 2112 seconds
#
# Revision: 1
# Processed by: cddbd v1.5.2PL0 Copyright (c) Steve Scherf et al.
# Submitted via: dBpowerAMP V4.0
#
DISCID=8f083e0a
DTITLE=No Justice - No Justice
DYEAR=2006
DGENRE=Country
TTITLE0=Never Come Back
TTITLE1=Don´t Walk Away
TTITLE2=Red Dress
TTITLE3=Bend But Don´t Break
TTITLE4=By My Side
TTITLE5=Circles
TTITLE6=Who I Want To Be
TTITLE7=Way Down
TTITLE8=Breathe
TTITLE9=Still Missing You
EXTD=
EXTT0=
EXTT1=
EXTT2=
EXTT3=
EXTT4=
EXTT5=
EXTT6=
EXTT7=
EXTT8=
EXTT9=
PLAYORDER=
